<svg width="720" height="720" xmlns="http://www.w3.org/2000/svg" xmlns:xlink="http://www.w3.org/1999/xlink" overflow="hidden">
	<defs>
		<clipPath id="clip0">
			<rect x="0" y="0" width="720" height="720"/>
		</clipPath>
	</defs>
	<g clip-path="url(#clip0)">
		<path d="M506.59 144.086C506.504 144.292 484.188 237.069 424.374 340.146L418.089 350.569 432.877 364.601C473.915 407.405 493.719 450.74 493.602 450.706 493.484 450.672 445.996 448.32 391.131 426.012L372.665 417.463 365.285 427.16C291.49 520.798 213.265 575.816 213.409 575.914 213.554 576.012 235.826 483.006 295.628 379.868L301.927 369.417 287.16 355.381C246.185 312.549 226.482 269.17 226.398 269.293 226.314 269.417 273.903 271.724 328.831 294.004L347.319 302.546 354.712 292.825C428.495 199.125 506.677 143.88 506.59 144.086ZM562.194 62.1876C726.671 173.856 769.481 397.716 657.812 562.194 546.144 726.671 322.283 769.481 157.806 657.812 281.164 741.564 471.691 676.122 583.359 511.645 695.028 347.168 685.552 145.939 562.194 62.1876ZM549.627 54.334 550.436 54.7715C554.418 57.0988 558.339 59.5704 562.194 62.1876ZM361.152 0.000944789C421.818 0.139934 483.018 15.5863 538.69 47.4992L549.627 54.334 538.313 48.2203C415.328-12.9967 241.33 54.1573 136.641 208.355 24.9721 372.832 34.4484 574.061 157.806 657.812-6.67095 546.144-49.4809 322.283 62.1876 157.806 131.98 55.008 245.598-0.263911 361.152 0.000944789Z" fill="#77FFFF" fill-rule="evenodd"/>
	</g>
</svg>