<svg xmlns="http://www.w3.org/2000/svg" width="24" height="24" viewBox="0 0 24 24"> <path fill="#7ff" d="M 8.796807,5.5951778 6.5107109,7.881274 v 8.235888 h 2.7442536 v 2.28766 l 2.2876595,-2.28766 h 1.827939 L 17.489289,12 V 5.5951778 Z m 0.4581575,0.9147513 h 7.3195725 v 5.0319129 l -1.829502,1.829502 H 12.915533 L 11.314328,14.97255 V 13.371344 H 9.2549645 Z m 2.5159565,1.6012055 v 2.7426904 h 0.914751 V 8.1111346 Z m 2.515957,0 v 2.7426904 h 0.914751 V 8.1111346 Z M 12,2.0000001 C 17.514,2.0000001 22,6.486 22,12 22,17.514 17.514,22 12,22 6.486,22 1.9999997,17.514 1.9999997,12 1.9999997,6.486 6.486,2.0000001 12,2.0000001 Z M 12,1.6e-7 C 5.373,1.6e-7 -3.55e-7,5.373 -3.55e-7,12 -3.55e-7,18.627 5.373,24 12,24 18.627,24 24,18.627 24,12 24,5.373 18.627,1.6e-7 12,1.6e-7 Z"/></svg>